<mxfile host="Electron" modified="2023-06-02T10:18:51.773Z" agent="Mozilla/5.0 (Windows NT 10.0; Win64; x64) AppleWebKit/537.36 (KHTML, like Gecko) draw.io/21.2.8 Chrome/112.0.5615.165 Electron/24.2.0 Safari/537.36" etag="GdrHLyIoYETF6_UhJqRV" version="21.2.8" type="device">
  <diagram id="6a731a19-8d31-9384-78a2-239565b7b9f0" name="Page-1">
    <mxGraphModel dx="3945" dy="2687" grid="1" gridSize="10" guides="1" tooltips="1" connect="1" arrows="1" fold="1" page="1" pageScale="1" pageWidth="1169" pageHeight="827" background="none" math="0" shadow="0">
      <root>
        <mxCell id="0" />
        <mxCell id="1" parent="0" />
        <mxCell id="1350" value="&lt;b&gt;Bài 4 : Thymeleaf&lt;/b&gt;" style="ellipse;whiteSpace=wrap;html=1;shadow=0;fontFamily=Helvetica;fontSize=20;fontColor=#FFFFFF;align=center;strokeWidth=3;fillColor=#1699D3;strokeColor=none;" parent="1" vertex="1">
          <mxGeometry x="280" y="-100" width="198.5" height="120" as="geometry" />
        </mxCell>
        <mxCell id="1351" value="Bài 5 : ORM" style="ellipse;whiteSpace=wrap;html=1;shadow=0;fontFamily=Helvetica;fontSize=20;fontColor=#FFFFFF;align=center;strokeWidth=3;fillColor=#F08705;strokeColor=none;gradientColor=none;" parent="1" vertex="1">
          <mxGeometry x="1103.5" y="241.5" width="120" height="120" as="geometry" />
        </mxCell>
        <mxCell id="9B7yc1801kk1VfymF8rt-1542" value="" style="edgeStyle=orthogonalEdgeStyle;rounded=0;orthogonalLoop=1;jettySize=auto;html=1;" edge="1" parent="1" source="1352" target="1412">
          <mxGeometry relative="1" as="geometry" />
        </mxCell>
        <mxCell id="9B7yc1801kk1VfymF8rt-1543" value="" style="edgeStyle=orthogonalEdgeStyle;rounded=0;orthogonalLoop=1;jettySize=auto;html=1;" edge="1" parent="1" source="1352" target="1412">
          <mxGeometry relative="1" as="geometry" />
        </mxCell>
        <mxCell id="9B7yc1801kk1VfymF8rt-1545" value="" style="edgeStyle=orthogonalEdgeStyle;rounded=0;orthogonalLoop=1;jettySize=auto;html=1;" edge="1" parent="1" source="1352">
          <mxGeometry relative="1" as="geometry">
            <mxPoint x="2102.6800180402056" y="125" as="targetPoint" />
            <Array as="points">
              <mxPoint x="1816" y="270" />
              <mxPoint x="1970" y="270" />
              <mxPoint x="1970" y="125" />
            </Array>
          </mxGeometry>
        </mxCell>
        <mxCell id="1352" value="Bird" style="ellipse;whiteSpace=wrap;html=1;shadow=0;fontFamily=Helvetica;fontSize=20;fontColor=#FFFFFF;align=center;strokeWidth=3;fillColor=#E85642;strokeColor=none;" parent="1" vertex="1">
          <mxGeometry x="1756" y="291.5" width="120" height="120" as="geometry" />
        </mxCell>
        <mxCell id="1353" value="Validatetion" style="ellipse;whiteSpace=wrap;html=1;shadow=0;fontFamily=Helvetica;fontSize=20;fontColor=#FFFFFF;align=center;strokeWidth=3;fillColor=#1699D3;strokeColor=none;" parent="1" vertex="1">
          <mxGeometry x="1970" y="786.5" width="120" height="120" as="geometry" />
        </mxCell>
        <mxCell id="JrTmAF7L5K-6k5XvirXO-1544" style="edgeStyle=orthogonalEdgeStyle;rounded=0;orthogonalLoop=1;jettySize=auto;html=1;entryX=0.106;entryY=0;entryDx=0;entryDy=0;entryPerimeter=0;" parent="1" source="1355" target="Cmk2xYs6YTEzGEQr2qk5-1550" edge="1">
          <mxGeometry relative="1" as="geometry" />
        </mxCell>
        <mxCell id="JrTmAF7L5K-6k5XvirXO-1546" style="edgeStyle=orthogonalEdgeStyle;rounded=0;orthogonalLoop=1;jettySize=auto;html=1;" parent="1" source="1355" edge="1">
          <mxGeometry relative="1" as="geometry">
            <mxPoint x="1221.75" y="1590" as="targetPoint" />
          </mxGeometry>
        </mxCell>
        <mxCell id="W5e1PEXYwIjicvcc-PXp-1546" value="" style="edgeStyle=orthogonalEdgeStyle;rounded=0;orthogonalLoop=1;jettySize=auto;html=1;" parent="1" source="1355" target="W5e1PEXYwIjicvcc-PXp-1545" edge="1">
          <mxGeometry relative="1" as="geometry">
            <Array as="points">
              <mxPoint x="1270" y="2280" />
            </Array>
          </mxGeometry>
        </mxCell>
        <mxCell id="1355" value="Bài 1&amp;nbsp;" style="ellipse;whiteSpace=wrap;html=1;shadow=0;fontFamily=Helvetica;fontSize=20;fontColor=#FFFFFF;align=center;strokeWidth=3;fillColor=#F08705;strokeColor=none;" parent="1" vertex="1">
          <mxGeometry x="1163.5" y="1410" width="116.5" height="120" as="geometry" />
        </mxCell>
        <mxCell id="JrTmAF7L5K-6k5XvirXO-1560" style="edgeStyle=orthogonalEdgeStyle;rounded=0;orthogonalLoop=1;jettySize=auto;html=1;entryX=0;entryY=0.25;entryDx=0;entryDy=0;" parent="1" source="1356" target="1499" edge="1">
          <mxGeometry relative="1" as="geometry">
            <Array as="points">
              <mxPoint x="50" y="1260" />
              <mxPoint x="50" y="1260" />
            </Array>
          </mxGeometry>
        </mxCell>
        <mxCell id="JrTmAF7L5K-6k5XvirXO-1565" value="" style="edgeStyle=orthogonalEdgeStyle;rounded=0;orthogonalLoop=1;jettySize=auto;html=1;" parent="1" source="1356" target="JrTmAF7L5K-6k5XvirXO-1564" edge="1">
          <mxGeometry relative="1" as="geometry">
            <Array as="points">
              <mxPoint x="-30" y="1570" />
            </Array>
          </mxGeometry>
        </mxCell>
        <mxCell id="1356" value="Bài 2&amp;nbsp;" style="ellipse;whiteSpace=wrap;html=1;shadow=0;fontFamily=Helvetica;fontSize=20;fontColor=#FFFFFF;align=center;strokeWidth=3;fillColor=#E85642;strokeColor=none;" parent="1" vertex="1">
          <mxGeometry x="-70" y="1161.5" width="120" height="120" as="geometry" />
        </mxCell>
        <mxCell id="1357" value="&lt;b&gt;ORM là gì : Là 1 kỹ thuật liên kết giữa&amp;nbsp;&lt;br&gt;các đối tượng trong lập trình với các đối tượng&amp;nbsp;&lt;br&gt;trong CSDL&lt;/b&gt;" style="rounded=1;fillColor=#f5af58;strokeColor=none;strokeWidth=3;shadow=0;html=1;fontColor=#FFFFFF;" parent="1" vertex="1">
          <mxGeometry x="860" y="418" width="270" height="82" as="geometry" />
        </mxCell>
        <mxCell id="1358" value="Phân&amp;nbsp; biệt JSP với themeleaf&lt;br&gt;- JSP và thymeleaf là hai cong nghệ khác nhau sử dụng để hiển thị nội dung trên trình duyệt web&amp;nbsp;&lt;br&gt;Khác nhau :&amp;nbsp;&lt;br&gt;&amp;nbsp;-1. Cú pháp : JSP sử dụng code java , thymeleaf sử dụng cú pháp tương tự HTML&amp;nbsp;&lt;br&gt;2. Hiệu suất : thymeleaf có hiệu suất tốt hơn so với JSP trong các web đơn giản&amp;nbsp;&lt;br&gt;3 Tính linh động : thymeleaf cho phép nhúng các mã Java và HTML trực tiếp vào template&amp;nbsp;" style="rounded=1;fillColor=#64BBE2;strokeColor=none;strokeWidth=3;shadow=0;html=1;fontColor=#FFFFFF;" parent="1" vertex="1">
          <mxGeometry x="511" y="-450" width="610" height="240" as="geometry" />
        </mxCell>
        <mxCell id="1359" style="endArrow=none;strokeWidth=6;strokeColor=#1699D3;html=1;" parent="1" source="1515" target="1350" edge="1">
          <mxGeometry relative="1" as="geometry" />
        </mxCell>
        <mxCell id="1360" style="endArrow=none;strokeWidth=6;strokeColor=#f08705;html=1;" parent="1" source="1515" target="1351" edge="1">
          <mxGeometry relative="1" as="geometry" />
        </mxCell>
        <mxCell id="1361" style="endArrow=none;strokeWidth=6;strokeColor=#E85642;html=1;" parent="1" source="1515" target="1352" edge="1">
          <mxGeometry relative="1" as="geometry" />
        </mxCell>
        <mxCell id="1362" style="endArrow=none;strokeWidth=6;strokeColor=#1699D3;html=1;" parent="1" source="1515" target="1353" edge="1">
          <mxGeometry relative="1" as="geometry" />
        </mxCell>
        <mxCell id="1363" style="endArrow=none;strokeWidth=6;strokeColor=#736CA8;html=1;" parent="1" source="1515" target="1516" edge="1">
          <mxGeometry relative="1" as="geometry" />
        </mxCell>
        <mxCell id="1365" value="" style="edgeStyle=none;endArrow=none;strokeWidth=6;strokeColor=#F08705;html=1;" parent="1" source="1515" target="1355" edge="1">
          <mxGeometry x="181" y="226.5" width="100" height="100" as="geometry">
            <mxPoint x="181" y="326.5" as="sourcePoint" />
            <mxPoint x="281" y="226.5" as="targetPoint" />
          </mxGeometry>
        </mxCell>
        <mxCell id="1366" value="" style="edgeStyle=none;endArrow=none;strokeWidth=6;strokeColor=#E85642;html=1;" parent="1" source="1515" target="1356" edge="1">
          <mxGeometry x="181" y="226.5" width="100" height="100" as="geometry">
            <mxPoint x="181" y="326.5" as="sourcePoint" />
            <mxPoint x="281" y="226.5" as="targetPoint" />
          </mxGeometry>
        </mxCell>
        <mxCell id="1370" value="&lt;b&gt;Ưu điểm và nhược điểm của Thymeleaf :&amp;nbsp;&lt;br&gt;Ưu điểm :&amp;nbsp;&lt;br&gt;-CÓ tính linh hoạt cao hỗ trợ tích hợp cho các framework khacs&lt;br&gt;- Ít tốn dung lượng cho lần chạy đầu tiên&amp;nbsp;&lt;br&gt;- Ít thời gian cho lần chạy đầu tiên&amp;nbsp;&lt;br&gt;Nhược điểm : là không custome được thẻ&lt;br&gt;&lt;/b&gt;" style="rounded=1;fillColor=#64BBE2;strokeColor=none;strokeWidth=3;shadow=0;html=1;fontColor=#FFFFFF;" parent="1" vertex="1">
          <mxGeometry x="-430" y="-270" width="410" height="170" as="geometry" />
        </mxCell>
        <mxCell id="1371" value="Thymeleaf là gì : Là bộ xử lý view xây dựng dựa trên nhiều&amp;nbsp;&lt;br&gt;các tiêu chuẩn của web , đặc biệt là HTML 5 và nó có thể&amp;nbsp;&lt;br&gt;xử lý 6 loại template khác nhau : HTML , JS , CSS ,XML , TEST&lt;br&gt;RAW" style="rounded=1;fillColor=#64BBE2;strokeColor=none;strokeWidth=3;shadow=0;html=1;fontColor=#FFFFFF;" parent="1" vertex="1">
          <mxGeometry x="-380" y="-580" width="390" height="140" as="geometry" />
        </mxCell>
        <mxCell id="1372" value="&lt;b&gt;Các biểu thức thymeleaf :&lt;br&gt;-Biến : ${}&lt;br&gt;-thuộc tính : *{}&lt;br&gt;-URL :&amp;nbsp; @{}&lt;br&gt;-Message : #{}&lt;br&gt;-phân đoạn :=&amp;gt; import 1 layout vào trong thymleaf&amp;nbsp;&lt;/b&gt;" style="rounded=1;fillColor=#64BBE2;strokeColor=none;strokeWidth=3;shadow=0;html=1;fontColor=#FFFFFF;" parent="1" vertex="1">
          <mxGeometry x="130" y="-640" width="340" height="190" as="geometry" />
        </mxCell>
        <mxCell id="1379" value="" style="edgeStyle=none;endArrow=none;strokeWidth=3;strokeColor=#64BBE2;html=1;" parent="1" source="1350" target="1358" edge="1">
          <mxGeometry x="-221.5" y="56.5" width="100" height="100" as="geometry">
            <mxPoint x="-221.5" y="156.5" as="sourcePoint" />
            <mxPoint x="-121.5" y="56.5" as="targetPoint" />
          </mxGeometry>
        </mxCell>
        <mxCell id="1382" value="" style="edgeStyle=none;endArrow=none;strokeWidth=3;strokeColor=#64BBE2;html=1;" parent="1" source="1350" target="1370" edge="1">
          <mxGeometry x="-221.5" y="56.5" width="100" height="100" as="geometry">
            <mxPoint x="-221.5" y="156.5" as="sourcePoint" />
            <mxPoint x="-121.5" y="56.5" as="targetPoint" />
          </mxGeometry>
        </mxCell>
        <mxCell id="1383" value="" style="edgeStyle=none;endArrow=none;strokeWidth=3;strokeColor=#64BBE2;html=1;" parent="1" source="1350" target="1371" edge="1">
          <mxGeometry x="-221.5" y="56.5" width="100" height="100" as="geometry">
            <mxPoint x="-221.5" y="156.5" as="sourcePoint" />
            <mxPoint x="-121.5" y="56.5" as="targetPoint" />
          </mxGeometry>
        </mxCell>
        <mxCell id="1384" value="" style="edgeStyle=none;endArrow=none;strokeWidth=3;strokeColor=#64BBE2;html=1;" parent="1" source="1350" target="1372" edge="1">
          <mxGeometry x="-221.5" y="56.5" width="100" height="100" as="geometry">
            <mxPoint x="-221.5" y="156.5" as="sourcePoint" />
            <mxPoint x="-121.5" y="56.5" as="targetPoint" />
          </mxGeometry>
        </mxCell>
        <mxCell id="1389" value="&lt;b&gt;JPA : là 1 bộ đặc tả interface cung cấp khả năng đọc,&lt;br&gt;quản lý dữ liệu từ Java đến các quan hệ trong CSDL&amp;nbsp;&lt;br&gt;-JPA : cung cấp 1 mô hình POJO cho phép ánh xạ table&amp;nbsp;&lt;br&gt;và các mối quan hệ trong DB&amp;nbsp; ,Class và các mỗi quan hệ&lt;br&gt;giữa các Object&lt;/b&gt;" style="rounded=1;fillColor=#f5af58;strokeColor=none;strokeWidth=3;shadow=0;html=1;fontColor=#FFFFFF;" parent="1" vertex="1">
          <mxGeometry x="740" y="250" width="310" height="110" as="geometry" />
        </mxCell>
        <mxCell id="1391" value="&lt;b&gt;- Các điều kiện để trở thành 1 entity(PoJO):&lt;br&gt;-Gắn với annotation Entity&amp;nbsp;&lt;br&gt;-Khai báo Constructor không tham số và đặt public&lt;br&gt;-Ko đc khai báo final&amp;nbsp;&lt;br&gt;-Access modifier cho thuộc tính không được là public&amp;nbsp;&lt;br&gt;hoặc protected và package là private&amp;nbsp;&lt;/b&gt;" style="rounded=1;fillColor=#f5af58;strokeColor=none;strokeWidth=3;shadow=0;html=1;fontColor=#FFFFFF;" parent="1" vertex="1">
          <mxGeometry x="730" y="110" width="320" height="130" as="geometry" />
        </mxCell>
        <mxCell id="1392" value="&lt;b&gt;Persistence Context là tập thể các Entity&lt;br&gt;Entity Manager : Là 1 interface cho phép đọc , thêm mới,cập&lt;br&gt;nhậy và tìm kiếm dữ liệu theo id&amp;nbsp;&lt;/b&gt;" style="rounded=1;fillColor=#f5af58;strokeColor=none;strokeWidth=3;shadow=0;html=1;fontColor=#FFFFFF;" parent="1" vertex="1">
          <mxGeometry x="850" y="-40" width="360" height="110" as="geometry" />
        </mxCell>
        <mxCell id="1394" value="&lt;b&gt;@Entity để liên kết model với table&amp;nbsp;&lt;br&gt;trong DB&amp;nbsp;&lt;br&gt;@Colum : lket thuộc tính với cột trong&lt;br&gt;DB&lt;/b&gt;" style="rounded=1;fillColor=#f5af58;strokeColor=none;strokeWidth=3;shadow=0;html=1;fontColor=#FFFFFF;" parent="1" vertex="1">
          <mxGeometry x="1233.5" y="70" width="206.5" height="110" as="geometry" />
        </mxCell>
        <mxCell id="1397" value="Spider" style="rounded=1;fillColor=#f5af58;strokeColor=none;strokeWidth=3;shadow=0;html=1;fontColor=#FFFFFF;" parent="1" vertex="1">
          <mxGeometry x="1293.5" y="331.5" width="120" height="40" as="geometry" />
        </mxCell>
        <mxCell id="1398" value="&lt;b&gt;Ưu nhược điểm của ORM :&amp;nbsp;&lt;br&gt;Ưu điểm :&amp;nbsp;&lt;br&gt;- Tập trung thao tác với các đối tượng mà ko cần quan trọng&amp;nbsp;&lt;br&gt;đến CSDL&lt;br&gt;=&amp;gt;&amp;gt; Quản lý dữ liệu tập trung trong code&amp;nbsp;&lt;br&gt;-Các thao tác với CSDl thực hiện 1 cách tự động =&amp;gt; tránh đc&amp;nbsp;&lt;br&gt;lỗi cú pháp SQL&amp;nbsp;&lt;br&gt;-Hỗ trợ transaction 1 cách tự động&amp;nbsp;&lt;br&gt;- Có cơ chế cache dữ liệu để giúp truy xuất nhanh hơn&amp;nbsp;&lt;br&gt;Nhược điểm :&amp;nbsp;&lt;br&gt;-Nếu gặp thao tác phức tạp thì cần đến CSDL thuần&lt;br&gt;-Dễ rơi vào bẫy truy xuất&amp;nbsp;&lt;/b&gt;" style="rounded=1;fillColor=#f5af58;strokeColor=none;strokeWidth=3;shadow=0;html=1;fontColor=#FFFFFF;" parent="1" vertex="1">
          <mxGeometry x="1140" y="394" width="343.5" height="206" as="geometry" />
        </mxCell>
        <mxCell id="1399" value="" style="edgeStyle=none;endArrow=none;strokeWidth=3;strokeColor=#F5AF58;html=1;" parent="1" source="1351" target="1357" edge="1">
          <mxGeometry x="3.5" y="21.5" width="100" height="100" as="geometry">
            <mxPoint x="3.5" y="121.5" as="sourcePoint" />
            <mxPoint x="103.5" y="21.5" as="targetPoint" />
          </mxGeometry>
        </mxCell>
        <mxCell id="1401" value="" style="edgeStyle=none;endArrow=none;strokeWidth=3;strokeColor=#F5AF58;html=1;" parent="1" source="1351" target="1389" edge="1">
          <mxGeometry x="3.5" y="21.5" width="100" height="100" as="geometry">
            <mxPoint x="3.5" y="121.5" as="sourcePoint" />
            <mxPoint x="103.5" y="21.5" as="targetPoint" />
          </mxGeometry>
        </mxCell>
        <mxCell id="1403" value="" style="edgeStyle=none;endArrow=none;strokeWidth=3;strokeColor=#F5AF58;html=1;" parent="1" source="1351" target="1391" edge="1">
          <mxGeometry x="3.5" y="21.5" width="100" height="100" as="geometry">
            <mxPoint x="3.5" y="121.5" as="sourcePoint" />
            <mxPoint x="103.5" y="21.5" as="targetPoint" />
          </mxGeometry>
        </mxCell>
        <mxCell id="1404" value="" style="edgeStyle=none;endArrow=none;strokeWidth=3;strokeColor=#F5AF58;html=1;" parent="1" source="1351" target="1392" edge="1">
          <mxGeometry x="3.5" y="21.5" width="100" height="100" as="geometry">
            <mxPoint x="3.5" y="121.5" as="sourcePoint" />
            <mxPoint x="103.5" y="21.5" as="targetPoint" />
          </mxGeometry>
        </mxCell>
        <mxCell id="1406" value="" style="edgeStyle=none;endArrow=none;strokeWidth=3;strokeColor=#F5AF58;html=1;" parent="1" source="1351" target="1394" edge="1">
          <mxGeometry x="3.5" y="21.5" width="100" height="100" as="geometry">
            <mxPoint x="3.5" y="121.5" as="sourcePoint" />
            <mxPoint x="103.5" y="21.5" as="targetPoint" />
          </mxGeometry>
        </mxCell>
        <mxCell id="1409" value="" style="edgeStyle=none;endArrow=none;strokeWidth=3;strokeColor=#F5AF58;html=1;" parent="1" source="1351" target="1397" edge="1">
          <mxGeometry x="3.5" y="21.5" width="100" height="100" as="geometry">
            <mxPoint x="3.5" y="121.5" as="sourcePoint" />
            <mxPoint x="103.5" y="21.5" as="targetPoint" />
          </mxGeometry>
        </mxCell>
        <mxCell id="1410" value="" style="edgeStyle=none;endArrow=none;strokeWidth=3;strokeColor=#F5AF58;html=1;" parent="1" source="1351" target="1398" edge="1">
          <mxGeometry x="3.5" y="21.5" width="100" height="100" as="geometry">
            <mxPoint x="3.5" y="121.5" as="sourcePoint" />
            <mxPoint x="103.5" y="21.5" as="targetPoint" />
          </mxGeometry>
        </mxCell>
        <mxCell id="1411" value="&lt;b&gt;Các inter face :&amp;nbsp;&lt;br&gt;1.Repository : nắm bắt entity cần quản lý và&amp;nbsp;&lt;br&gt;KDL id của entry đó&amp;nbsp;&lt;br&gt;2. CRUDRepository : kế thừa Interface Repository&lt;br&gt;chứa phương thức thông dụng cho CRUD&amp;nbsp;&lt;br&gt;3.PaggingAndSorttingRepository :(Interface) cung&lt;br&gt;cấp các phương thức hỗ trợ cho việc phân trang&amp;nbsp;&lt;br&gt;JpaRepository : Interface Chính của Spring Data &lt;br&gt;JPA là Repository để dánh dấu phân loại mà ko&amp;nbsp;&lt;br&gt;khai báo các phương thức&lt;/b&gt;" style="rounded=1;fillColor=#f08e81;strokeColor=none;strokeWidth=3;shadow=0;html=1;fontColor=#FFFFFF;" parent="1" vertex="1">
          <mxGeometry x="1420" y="210" width="300" height="180" as="geometry" />
        </mxCell>
        <mxCell id="1412" value="Khái niệm Spring DATA JPA : Là một công nghệ trong&amp;nbsp;&lt;br&gt;Spring boot cung cấp cho chúng ta các tính năng dễ&amp;nbsp;&lt;br&gt;dàng tương tác với CSDL&amp;nbsp;&lt;br&gt;-------------&amp;gt;&lt;br&gt;Tại sao phải sử dụng Spring Data JPA : Giúp đơn giản&lt;br&gt;hóa tầng truy xuất =&amp;gt; tự tạo ra các câu lệnh truy vấn&amp;nbsp;&lt;br&gt;thông qua tên phương thức , giúp ghi log&amp;nbsp;" style="rounded=1;fillColor=#f08e81;strokeColor=none;strokeWidth=3;shadow=0;html=1;fontColor=#FFFFFF;" parent="1" vertex="1">
          <mxGeometry x="2060" y="245.5" width="290" height="148.5" as="geometry" />
        </mxCell>
        <mxCell id="1418" value="&lt;b&gt;Hibernate : Là 1 ORM framework là thành phần sẽ triển khai JPA để thực hiện&amp;nbsp;&lt;br&gt;các câu lệnh truy vấn với DB&amp;nbsp;&lt;/b&gt;" style="rounded=1;fillColor=#f08e81;strokeColor=none;strokeWidth=3;shadow=0;html=1;fontColor=#FFFFFF;" parent="1" vertex="1">
          <mxGeometry x="1587" y="-150" width="458" height="80" as="geometry" />
        </mxCell>
        <mxCell id="1419" value="&lt;b&gt;Hibernate : Là 1 ORM Framework là thành phần&amp;nbsp;&lt;br&gt;sẽ triển khai JPA&amp;nbsp; để thực hiện các câu lệnh truy vấn&lt;br&gt;với DB&amp;nbsp;&lt;br&gt;ORM : Là kỹ thuật liên kết giữa các đối tượng trong&amp;nbsp;&lt;br&gt;lập trình với các đối tượng trong CSDL&amp;nbsp;&lt;br&gt;JPA : Là 1 bộ đặc tả interface cung cấp khả năng đọc&amp;nbsp;&lt;br&gt;quản lý dữ liệu từ Java đến các quan hệ trong CSDL&lt;/b&gt;" style="rounded=1;fillColor=#f08e81;strokeColor=none;strokeWidth=3;shadow=0;html=1;fontColor=#FFFFFF;" parent="1" vertex="1">
          <mxGeometry x="1483.5" y="-40" width="310" height="160" as="geometry" />
        </mxCell>
        <mxCell id="1420" value="&lt;b&gt;Spring boot là gì : 1 framwork giúp xây dựng các&amp;nbsp;&lt;br&gt;ứng dung java nhanh chóng và dễ dàng , với một&amp;nbsp;&lt;br&gt;số tính năng mặc định giúp giảm tốc độ phức tạp&amp;nbsp;&lt;br&gt;trong việc cấu hình và triển khai&amp;nbsp;&lt;/b&gt;" style="rounded=1;fillColor=#f08e81;strokeColor=none;strokeWidth=3;shadow=0;html=1;fontColor=#FFFFFF;" parent="1" vertex="1">
          <mxGeometry x="1570" y="516.5" width="300" height="103.5" as="geometry" />
        </mxCell>
        <mxCell id="1421" value="&lt;b&gt;Ưu điểm của việc sửdụng Spring Boot :&amp;nbsp;&lt;br&gt;- RAD phát triển dự án cấu hình nhanh&amp;nbsp;&lt;br&gt;- Ít cấu hình , sử dụng quy ước để tự cấu hình&amp;nbsp;&lt;br&gt;-Sử dụng lệnh java để chạy&amp;nbsp;&lt;br&gt;-Cung cấp các thư viện &quot;started&quot;để giúp đơn giản hóa cấu hình Maven/Grande&lt;br&gt;- Được nhúng sẵn tomcat ,Jetty, undertow&amp;nbsp;&lt;br&gt;-Ktra cấu hình , đếm số liệu&amp;nbsp;&lt;/b&gt;" style="rounded=1;fillColor=#f08e81;strokeColor=none;strokeWidth=3;shadow=0;html=1;fontColor=#FFFFFF;" parent="1" vertex="1">
          <mxGeometry x="1890" y="407.5" width="460" height="193.5" as="geometry" />
        </mxCell>
        <mxCell id="1423" value="" style="edgeStyle=none;endArrow=none;strokeWidth=3;strokeColor=#F08E81;html=1;" parent="1" source="1352" target="1411" edge="1">
          <mxGeometry x="31" y="106.5" width="100" height="100" as="geometry">
            <mxPoint x="31" y="206.5" as="sourcePoint" />
            <mxPoint x="131" y="106.5" as="targetPoint" />
          </mxGeometry>
        </mxCell>
        <mxCell id="1429" value="" style="edgeStyle=none;endArrow=none;strokeWidth=3;strokeColor=#F08E81;html=1;" parent="1" source="1352" target="1418" edge="1">
          <mxGeometry x="31" y="106.5" width="100" height="100" as="geometry">
            <mxPoint x="31" y="206.5" as="sourcePoint" />
            <mxPoint x="131" y="106.5" as="targetPoint" />
          </mxGeometry>
        </mxCell>
        <mxCell id="1430" value="" style="edgeStyle=none;endArrow=none;strokeWidth=3;strokeColor=#F08E81;html=1;" parent="1" source="1352" target="1419" edge="1">
          <mxGeometry x="31" y="106.5" width="100" height="100" as="geometry">
            <mxPoint x="31" y="206.5" as="sourcePoint" />
            <mxPoint x="131" y="106.5" as="targetPoint" />
          </mxGeometry>
        </mxCell>
        <mxCell id="1433" value="" style="edgeStyle=none;endArrow=none;strokeWidth=3;strokeColor=#F08E81;html=1;" parent="1" source="1352" target="1421" edge="1">
          <mxGeometry x="31" y="106.5" width="100" height="100" as="geometry">
            <mxPoint x="31" y="206.5" as="sourcePoint" />
            <mxPoint x="131" y="106.5" as="targetPoint" />
          </mxGeometry>
        </mxCell>
        <mxCell id="1434" value="" style="edgeStyle=none;endArrow=none;strokeWidth=3;strokeColor=#F08E81;html=1;" parent="1" source="1352" target="1420" edge="1">
          <mxGeometry x="31" y="106.5" width="100" height="100" as="geometry">
            <mxPoint x="31" y="206.5" as="sourcePoint" />
            <mxPoint x="131" y="106.5" as="targetPoint" />
          </mxGeometry>
        </mxCell>
        <mxCell id="1435" value="Perch" style="rounded=1;fillColor=#64BBE2;strokeColor=none;strokeWidth=3;shadow=0;html=1;fontColor=#FFFFFF;" parent="1" vertex="1">
          <mxGeometry x="1781" y="766.5" width="120" height="40" as="geometry" />
        </mxCell>
        <mxCell id="1436" value="Mackerel" style="rounded=1;fillColor=#64BBE2;strokeColor=none;strokeWidth=3;shadow=0;html=1;fontColor=#FFFFFF;" parent="1" vertex="1">
          <mxGeometry x="1811" y="696.5" width="120" height="40" as="geometry" />
        </mxCell>
        <mxCell id="1437" value="Tuna" style="rounded=1;fillColor=#64BBE2;strokeColor=none;strokeWidth=3;shadow=0;html=1;fontColor=#FFFFFF;" parent="1" vertex="1">
          <mxGeometry x="1920" y="640" width="120" height="40" as="geometry" />
        </mxCell>
        <mxCell id="1438" value="Phân biệt converter và formatter :&amp;nbsp;&lt;br&gt;- Converter : là 1 cơ chế được spring boot hỗ trợ chuyển đổi giữa các KDL khác nhau&amp;nbsp;&lt;br&gt;- Chỉ áp dụng cho một loại dữ liệu cụ thể&amp;nbsp;&lt;br&gt;- Formatter : là cơ chế được Spring Boot để định dạng các giá trị đầu vào hoặc đầu ra theo 1&amp;nbsp;&lt;br&gt;định dạng&amp;nbsp;&lt;br&gt;- Áp dụng cho nhiều kiểu dữ liệu&amp;nbsp;" style="rounded=1;fillColor=#64BBE2;strokeColor=none;strokeWidth=3;shadow=0;html=1;fontColor=#FFFFFF;" parent="1" vertex="1">
          <mxGeometry x="2056" y="616.5" width="504" height="103.5" as="geometry" />
        </mxCell>
        <mxCell id="1441" value="&lt;b&gt;So sánh Slice với Page :&amp;nbsp;&lt;br&gt;Slice : không gởi kèm tổng số trang , - Dùng cho dữ&amp;nbsp;&lt;br&gt;liệu lớn&amp;nbsp;&lt;br&gt;Page : Có gởi kèm tổng số trang , - Nếu dữ liệu lớn&amp;nbsp;&lt;br&gt;đếm tổng số trang sẽ lâu (Vì Count * From Nên lâu )&lt;/b&gt;" style="rounded=1;fillColor=#64BBE2;strokeColor=none;strokeWidth=3;shadow=0;html=1;fontColor=#FFFFFF;" parent="1" vertex="1">
          <mxGeometry x="2140" y="786.5" width="320" height="188.5" as="geometry" />
        </mxCell>
        <mxCell id="1443" value="Các mối quan hệ :&amp;nbsp;&lt;br&gt;1-n , n-n , 1-1" style="rounded=1;fillColor=#64BBE2;strokeColor=none;strokeWidth=3;shadow=0;html=1;fontColor=#FFFFFF;" parent="1" vertex="1">
          <mxGeometry x="1981" y="1016.5" width="249" height="63.5" as="geometry" />
        </mxCell>
        <mxCell id="1444" value="Trout" style="rounded=1;fillColor=#64BBE2;strokeColor=none;strokeWidth=3;shadow=0;html=1;fontColor=#FFFFFF;" parent="1" vertex="1">
          <mxGeometry x="1856" y="956.5" width="120" height="40" as="geometry" />
        </mxCell>
        <mxCell id="1445" value="Catfish" style="rounded=1;fillColor=#64BBE2;strokeColor=none;strokeWidth=3;shadow=0;html=1;fontColor=#FFFFFF;" parent="1" vertex="1">
          <mxGeometry x="1756" y="891.5" width="120" height="40" as="geometry" />
        </mxCell>
        <mxCell id="1446" value="" style="edgeStyle=none;endArrow=none;strokeWidth=3;strokeColor=#64BBE2;html=1;" parent="1" source="1353" target="1435" edge="1">
          <mxGeometry x="-24" y="196.5" width="100" height="100" as="geometry">
            <mxPoint x="-24" y="296.5" as="sourcePoint" />
            <mxPoint x="76" y="196.5" as="targetPoint" />
          </mxGeometry>
        </mxCell>
        <mxCell id="1447" value="" style="edgeStyle=none;endArrow=none;strokeWidth=3;strokeColor=#64BBE2;html=1;" parent="1" source="1353" target="1436" edge="1">
          <mxGeometry x="-24" y="196.5" width="100" height="100" as="geometry">
            <mxPoint x="-24" y="296.5" as="sourcePoint" />
            <mxPoint x="76" y="196.5" as="targetPoint" />
          </mxGeometry>
        </mxCell>
        <mxCell id="1448" value="" style="edgeStyle=none;endArrow=none;strokeWidth=3;strokeColor=#64BBE2;html=1;" parent="1" source="1353" target="1437" edge="1">
          <mxGeometry x="-24" y="196.5" width="100" height="100" as="geometry">
            <mxPoint x="-24" y="296.5" as="sourcePoint" />
            <mxPoint x="76" y="196.5" as="targetPoint" />
          </mxGeometry>
        </mxCell>
        <mxCell id="1449" value="" style="edgeStyle=none;endArrow=none;strokeWidth=3;strokeColor=#64BBE2;html=1;" parent="1" source="1353" target="1438" edge="1">
          <mxGeometry x="-24" y="196.5" width="100" height="100" as="geometry">
            <mxPoint x="-24" y="296.5" as="sourcePoint" />
            <mxPoint x="76" y="196.5" as="targetPoint" />
          </mxGeometry>
        </mxCell>
        <mxCell id="1453" value="" style="edgeStyle=none;endArrow=none;strokeWidth=3;strokeColor=#64BBE2;html=1;" parent="1" source="1353" target="1441" edge="1">
          <mxGeometry x="-24" y="196.5" width="100" height="100" as="geometry">
            <mxPoint x="-24" y="296.5" as="sourcePoint" />
            <mxPoint x="76" y="196.5" as="targetPoint" />
          </mxGeometry>
        </mxCell>
        <mxCell id="1454" value="" style="edgeStyle=none;endArrow=none;strokeWidth=3;strokeColor=#64BBE2;html=1;" parent="1" source="1353" target="1443" edge="1">
          <mxGeometry x="-24" y="196.5" width="100" height="100" as="geometry">
            <mxPoint x="-24" y="296.5" as="sourcePoint" />
            <mxPoint x="76" y="196.5" as="targetPoint" />
          </mxGeometry>
        </mxCell>
        <mxCell id="1455" value="" style="edgeStyle=none;endArrow=none;strokeWidth=3;strokeColor=#64BBE2;html=1;" parent="1" source="1353" target="1444" edge="1">
          <mxGeometry x="-24" y="196.5" width="100" height="100" as="geometry">
            <mxPoint x="-24" y="296.5" as="sourcePoint" />
            <mxPoint x="76" y="196.5" as="targetPoint" />
          </mxGeometry>
        </mxCell>
        <mxCell id="1456" value="" style="edgeStyle=none;endArrow=none;strokeWidth=3;strokeColor=#64BBE2;html=1;" parent="1" source="1353" target="1445" edge="1">
          <mxGeometry x="-24" y="196.5" width="100" height="100" as="geometry">
            <mxPoint x="-24" y="296.5" as="sourcePoint" />
            <mxPoint x="76" y="196.5" as="targetPoint" />
          </mxGeometry>
        </mxCell>
        <mxCell id="1468" value="&lt;p style=&quot;box-sizing: border-box; margin-top: 0.5em; margin-bottom: 0px; letter-spacing: -0.003em; font-size: 18px; word-break: break-word; overflow-wrap: break-word; color: rgb(27, 27, 27); font-family: &amp;quot;Open Sans&amp;quot;, -apple-system, BlinkMacSystemFont, &amp;quot;Segoe UI&amp;quot;, &amp;quot;Helvetica Neue&amp;quot;, Arial, sans-serif, &amp;quot;Apple Color Emoji&amp;quot;, &amp;quot;Segoe UI Emoji&amp;quot;, &amp;quot;Segoe UI Symbol&amp;quot;; text-align: left; background-color: rgb(255, 255, 255);&quot;&gt;Có 3 cách định nghĩa class là một bean:&lt;/p&gt;&lt;ul style=&quot;box-sizing: border-box; margin-bottom: 0px; margin-top: 1em; color: rgb(27, 27, 27); font-family: &amp;quot;Open Sans&amp;quot;, -apple-system, BlinkMacSystemFont, &amp;quot;Segoe UI&amp;quot;, &amp;quot;Helvetica Neue&amp;quot;, Arial, sans-serif, &amp;quot;Apple Color Emoji&amp;quot;, &amp;quot;Segoe UI Emoji&amp;quot;, &amp;quot;Segoe UI Symbol&amp;quot;; font-size: 18px; text-align: left; background-color: rgb(255, 255, 255);&quot;&gt;&lt;li style=&quot;box-sizing: border-box; font-size: 1em; word-break: break-word; overflow-wrap: break-word; margin-bottom: 0.5em;&quot;&gt;Khai báo trong file XML&lt;/li&gt;&lt;li style=&quot;box-sizing: border-box; font-size: 1em; word-break: break-word; overflow-wrap: break-word; margin-bottom: 0.5em;&quot;&gt;Dùng annotation trên class&lt;/li&gt;&lt;li style=&quot;box-sizing: border-box; font-size: 1em; word-break: break-word; overflow-wrap: break-word; margin-bottom: 0.5em;&quot;&gt;Dùng&amp;nbsp;&lt;code style=&quot;box-sizing: border-box; font-family: SFMono-Regular, Consolas, &amp;quot;Ubuntu Mono&amp;quot;, &amp;quot;Liberation Mono&amp;quot;, Menlo, Courier, monospace; font-size: 1em; color: inherit; overflow-wrap: break-word; padding: 3px 5px; border-radius: 2px; background-color: rgb(238, 238, 238);&quot;&gt;@Configuration&lt;/code&gt;&amp;nbsp;và&amp;nbsp;&lt;code style=&quot;box-sizing: border-box; font-family: SFMono-Regular, Consolas, &amp;quot;Ubuntu Mono&amp;quot;, &amp;quot;Liberation Mono&amp;quot;, Menlo, Courier, monospace; font-size: 1em; color: inherit; overflow-wrap: break-word; padding: 3px 5px; border-radius: 2px; background-color: rgb(238, 238, 238);&quot;&gt;@Bean&lt;/code&gt;&lt;/li&gt;&lt;/ul&gt;" style="rounded=1;fillColor=#f5af58;strokeColor=none;strokeWidth=3;shadow=0;html=1;fontColor=#FFFFFF;" parent="1" vertex="1">
          <mxGeometry x="1200" y="1100" width="340" height="174" as="geometry" />
        </mxCell>
        <mxCell id="1469" value="Có bao nhiêu cách thực hiện DI : 3 cách&amp;nbsp;&lt;br&gt;+ Contructor : Các biến phụ thuộc được cung cấp thông&amp;nbsp;&lt;br&gt;qua contructor&lt;br&gt;+Setter : Các biến phụ thuộc sẽ đc truyền vào 1 class&amp;nbsp;&lt;br&gt;thông qua cacs setter method&lt;br&gt;+Interface&amp;nbsp; : Các client phải triển khai một Interface mà&amp;nbsp;&lt;br&gt;có một setter method dành cho vc nhận biến phụ thuộc" style="rounded=1;fillColor=#f5af58;strokeColor=none;strokeWidth=3;shadow=0;html=1;fontColor=#FFFFFF;" parent="1" vertex="1">
          <mxGeometry x="1320" y="1309" width="300" height="131" as="geometry" />
        </mxCell>
        <mxCell id="1470" value="DI :&amp;nbsp; Là một Design Pattern cho phép xóa bỏ sự phụ thuộc&lt;br&gt;DI Là 1 cơ chế triển khai IOC&amp;nbsp;&lt;br&gt;Các dependency được cung cấp và điều khiển bởi container hoặc Framework&lt;br&gt;Thao tác tiêm vào các đối tượng khác được thực hiện với container hoặc framwork" style="rounded=1;fillColor=#f5af58;strokeColor=none;strokeWidth=3;shadow=0;html=1;fontColor=#FFFFFF;" parent="1" vertex="1">
          <mxGeometry x="1380" y="1460" width="461.5" height="80" as="geometry" />
        </mxCell>
        <mxCell id="1471" value="MVC Khác Spring MVC ?&amp;nbsp;&lt;br&gt;MVC là một kiến trúc thiết kế phần mềm , trong khi spring MVC&amp;nbsp;&lt;br&gt;là một Framework phát triển ứng dụng web Java Ê&amp;nbsp;&lt;br&gt;- MVC không cung cấp các lớp và API cụ thể xử lý các yêu&amp;nbsp; cầu&lt;br&gt;HTTP, trong khi spring MVC có thể giúp giải quyết điều đó&amp;nbsp;&lt;br&gt;- MVC có thể sử dụng cho bất kỳ ngôn ngữ&amp;nbsp; nào hay nền tảng nào&lt;br&gt;.- Spring MVC được sử dụng chủ yếu trong java" style="rounded=1;fillColor=#f5af58;strokeColor=none;strokeWidth=3;shadow=0;html=1;fontColor=#FFFFFF;" parent="1" vertex="1">
          <mxGeometry x="1478.5" y="1610" width="341.5" height="170" as="geometry" />
        </mxCell>
        <mxCell id="1474" value="&lt;b&gt;Tại sao phải có frontController&lt;/b&gt;&lt;br&gt;&amp;nbsp;-Là trung tâm điều khiển cho các yêu&amp;nbsp;&lt;br&gt;cầu của người dùng đối với ứng dụng&amp;nbsp;&lt;br&gt;web&amp;nbsp;&lt;br&gt;- bảo mật&amp;nbsp;&lt;br&gt;- đa ngôn ngữ&amp;nbsp;&lt;br&gt;-Đóng vai trò là DispatcherServlet giúp&amp;nbsp;&lt;br&gt;cho việc xử lý các yêu cầu HTTP dễ dàng&lt;br&gt;hơn&amp;nbsp;" style="rounded=1;fillColor=#f5af58;strokeColor=none;strokeWidth=3;shadow=0;html=1;fontColor=#FFFFFF;" parent="1" vertex="1">
          <mxGeometry x="1050" y="1963" width="210" height="210" as="geometry" />
        </mxCell>
        <mxCell id="1475" value="Có Bao nhiêu Bean Scope&amp;nbsp;&lt;br&gt;1.Singleton : Chỉ duy nhất một&amp;nbsp; thể hiện của&amp;nbsp;&lt;br&gt;Bean sẽ đc tạo cho mỗi container (mặc đinh)&lt;br&gt;2.Prototype : Mỗi thể hiện của bean sẽ được tạo&lt;br&gt;cho mỗi lần yêu cầu (request)&lt;br&gt;3.Request : giống với Prototype nhưng mà nó dùng&lt;br&gt;cho ứng dụng web , một thể hiện của bean sẽ đc&amp;nbsp;&lt;br&gt;tạo cho mỗi HTTP request&amp;nbsp;&lt;br&gt;4.Sesion : Mỗi thể hiện của bean sẽ được tạo cho&lt;br&gt;mỗi HTTP session&amp;nbsp;&lt;br&gt;5.Global-Session : Được sd để tạo global session&amp;nbsp;&lt;br&gt;bean bean cho các ứng dụng Porlet" style="rounded=1;fillColor=#f5af58;strokeColor=none;strokeWidth=3;shadow=0;html=1;fontColor=#FFFFFF;" parent="1" vertex="1">
          <mxGeometry x="643.5" y="1680" width="270" height="208.5" as="geometry" />
        </mxCell>
        <mxCell id="1476" value="Bean Là : 1 đối tượng được khởi tạo&lt;br&gt;và lắp ráp và quản lý bởi Spring&amp;nbsp;&lt;br&gt;IOC container&amp;nbsp;" style="rounded=1;fillColor=#f5af58;strokeColor=none;strokeWidth=3;shadow=0;html=1;fontColor=#FFFFFF;" parent="1" vertex="1">
          <mxGeometry x="730" y="1594" width="210" height="76" as="geometry" />
        </mxCell>
        <mxCell id="1477" value="&lt;b&gt;Tại sao phải sử dụng Bean :&amp;nbsp;&lt;br&gt;- Bean giúp cho ứng dụng có tính tái sử dụng , giữ cho&lt;br&gt;mã sạch dễ bảo trì&amp;nbsp;&lt;br&gt;- Giúp tạo ra đối tượng thủ công 1 cách nhanh chóng&lt;br&gt;- khả năng mở rộng := cách tạo ra các bean mới nâng&lt;br&gt;cấp những bean hiện có&amp;nbsp;&lt;/b&gt;" style="rounded=1;fillColor=#FF6666;strokeColor=#FF6666;strokeWidth=3;shadow=0;html=1;" parent="1" vertex="1">
          <mxGeometry x="690" y="1440" width="290" height="130" as="geometry" />
        </mxCell>
        <mxCell id="1478" value="&lt;b&gt;&lt;font color=&quot;#1a1a1a&quot;&gt;Vòng Đời Của Bean&lt;br&gt;1. Sử dụng intializingBean&amp;nbsp; and Disponable&lt;br&gt;để can thiệp (đối tượng ) được tạo và hủy đi&lt;br&gt;trong pring IoC container&amp;nbsp;&lt;span style=&quot;white-space: pre;&quot;&gt; &lt;/span&gt;&lt;br&gt;2. Các beans mà cài đặt DisponsableBean&amp;nbsp;&lt;br&gt;chúng t có thể can thiệp vào quá trình hủy&amp;nbsp;&lt;br&gt;bằng cách thêm cái dòng code vào trong&amp;nbsp;&lt;br&gt;destroy() mà DisponableBean cung cấp&amp;nbsp;&lt;br&gt;&lt;/font&gt;&lt;/b&gt;" style="rounded=1;fillColor=#f5af58;strokeColor=none;strokeWidth=3;shadow=0;html=1;fontColor=#FFFFFF;" parent="1" vertex="1">
          <mxGeometry x="870" y="1055" width="250" height="179" as="geometry" />
        </mxCell>
        <mxCell id="1479" value="" style="edgeStyle=none;endArrow=none;strokeWidth=3;strokeColor=#F5AF58;html=1;" parent="1" source="1355" target="1478" edge="1">
          <mxGeometry x="243.5" y="39" width="100" height="100" as="geometry">
            <mxPoint x="243.5" y="139" as="sourcePoint" />
            <mxPoint x="343.5" y="39" as="targetPoint" />
          </mxGeometry>
        </mxCell>
        <mxCell id="1480" value="" style="edgeStyle=none;endArrow=none;strokeWidth=3;strokeColor=#F5AF58;html=1;" parent="1" source="1355" target="1468" edge="1">
          <mxGeometry x="243.5" y="39" width="100" height="100" as="geometry">
            <mxPoint x="243.5" y="139" as="sourcePoint" />
            <mxPoint x="343.5" y="39" as="targetPoint" />
          </mxGeometry>
        </mxCell>
        <mxCell id="1481" value="" style="edgeStyle=none;endArrow=none;strokeWidth=3;strokeColor=#F5AF58;html=1;" parent="1" source="1355" target="1469" edge="1">
          <mxGeometry x="243.5" y="39" width="100" height="100" as="geometry">
            <mxPoint x="243.5" y="139" as="sourcePoint" />
            <mxPoint x="343.5" y="39" as="targetPoint" />
          </mxGeometry>
        </mxCell>
        <mxCell id="1482" value="" style="edgeStyle=none;endArrow=none;strokeWidth=3;strokeColor=#F5AF58;html=1;" parent="1" source="1355" target="1470" edge="1">
          <mxGeometry x="243.5" y="39" width="100" height="100" as="geometry">
            <mxPoint x="243.5" y="139" as="sourcePoint" />
            <mxPoint x="343.5" y="39" as="targetPoint" />
          </mxGeometry>
        </mxCell>
        <mxCell id="1483" value="" style="edgeStyle=none;endArrow=none;strokeWidth=3;strokeColor=#F5AF58;html=1;" parent="1" source="1355" target="1471" edge="1">
          <mxGeometry x="243.5" y="39" width="100" height="100" as="geometry">
            <mxPoint x="243.5" y="139" as="sourcePoint" />
            <mxPoint x="343.5" y="39" as="targetPoint" />
          </mxGeometry>
        </mxCell>
        <mxCell id="1484" value="" style="edgeStyle=none;endArrow=none;strokeWidth=3;strokeColor=#F5AF58;html=1;" parent="1" source="1355" target="JrTmAF7L5K-6k5XvirXO-1545" edge="1">
          <mxGeometry x="243.5" y="39" width="100" height="100" as="geometry">
            <mxPoint x="243.5" y="139" as="sourcePoint" />
            <mxPoint x="1480" y="1901.240234375" as="targetPoint" />
            <Array as="points">
              <mxPoint x="1290" y="1570" />
              <mxPoint x="1330" y="1600" />
              <mxPoint x="1370" y="1620" />
              <mxPoint x="1330" y="1590" />
              <mxPoint x="1440" y="1670" />
              <mxPoint x="1460" y="1810" />
              <mxPoint x="1410" y="1940" />
              <mxPoint x="1460" y="1800" />
            </Array>
          </mxGeometry>
        </mxCell>
        <mxCell id="1485" value="" style="edgeStyle=none;endArrow=none;strokeWidth=3;strokeColor=#F5AF58;html=1;entryX=0.628;entryY=-0.031;entryDx=0;entryDy=0;entryPerimeter=0;" parent="1" source="1355" target="Cmk2xYs6YTEzGEQr2qk5-1547" edge="1">
          <mxGeometry x="243.5" y="39" width="100" height="100" as="geometry">
            <mxPoint x="243.5" y="139" as="sourcePoint" />
            <mxPoint x="1119.758760299151" y="1500" as="targetPoint" />
          </mxGeometry>
        </mxCell>
        <mxCell id="1486" value="" style="edgeStyle=none;endArrow=none;strokeWidth=3;strokeColor=#F5AF58;html=1;" parent="1" source="1355" target="JrTmAF7L5K-6k5XvirXO-1548" edge="1">
          <mxGeometry x="243.5" y="39" width="100" height="100" as="geometry">
            <mxPoint x="243.5" y="139" as="sourcePoint" />
            <mxPoint x="960" y="2050" as="targetPoint" />
            <Array as="points">
              <mxPoint x="1139" y="1870" />
              <mxPoint x="1070" y="1970" />
              <mxPoint x="960" y="1940" />
              <mxPoint x="960" y="2030" />
            </Array>
          </mxGeometry>
        </mxCell>
        <mxCell id="1487" value="" style="edgeStyle=none;endArrow=none;strokeWidth=3;strokeColor=#F5AF58;html=1;" parent="1" source="1355" target="1475" edge="1">
          <mxGeometry x="243.5" y="39" width="100" height="100" as="geometry">
            <mxPoint x="243.5" y="139" as="sourcePoint" />
            <mxPoint x="343.5" y="39" as="targetPoint" />
          </mxGeometry>
        </mxCell>
        <mxCell id="1488" value="" style="edgeStyle=none;endArrow=none;strokeWidth=3;strokeColor=#F5AF58;html=1;" parent="1" source="1355" target="1476" edge="1">
          <mxGeometry x="243.5" y="39" width="100" height="100" as="geometry">
            <mxPoint x="243.5" y="139" as="sourcePoint" />
            <mxPoint x="343.5" y="39" as="targetPoint" />
          </mxGeometry>
        </mxCell>
        <mxCell id="1489" value="" style="edgeStyle=none;endArrow=none;strokeWidth=3;strokeColor=#F5AF58;html=1;" parent="1" source="1355" target="1477" edge="1">
          <mxGeometry x="243.5" y="39" width="100" height="100" as="geometry">
            <mxPoint x="243.5" y="139" as="sourcePoint" />
            <mxPoint x="343.5" y="39" as="targetPoint" />
          </mxGeometry>
        </mxCell>
        <mxCell id="1490" value="Contain Type và consume ?&amp;nbsp;&lt;br&gt;Ánh xạ với contain-type của Request ? :&amp;nbsp;&lt;br&gt;Sử dụng thuộc tính coinsumes để ánh xạ&lt;br&gt;đến Content-type của request&lt;br&gt;Ánh xạ với accept của request :&amp;nbsp;&lt;br&gt;Sử dụng thuộc tính produces để ánh xạ&amp;nbsp;&lt;br&gt;đến&amp;nbsp; Accept của Request&amp;nbsp;&lt;br&gt;Ánh xạ đến tham số của đường dẫn :&amp;nbsp;&lt;br&gt;Sử dụng thuộc tính&amp;nbsp; &amp;nbsp;params&amp;nbsp;&lt;span style=&quot;white-space: pre;&quot;&gt; &lt;/span&gt;để ánh xạ&lt;br&gt;đến tham số của đường dẫn&amp;nbsp;" style="rounded=1;fillColor=#f08e81;strokeColor=none;strokeWidth=3;shadow=0;html=1;fontColor=#FFFFFF;" parent="1" vertex="1">
          <mxGeometry x="10" y="931.5" width="220" height="168.5" as="geometry" />
        </mxCell>
        <mxCell id="1491" value="&lt;b&gt;các biến thể của request mapping có khác nhau gì không&lt;/b&gt;&lt;br&gt;&lt;b&gt;@PatchMapping: Biến thể này được sử dụng để chỉ định phương thức ánh xạ &lt;br&gt;cho yêu cầu PATCH.&lt;br&gt;Yêu cầu PATCH được sử dụng để cập nhật một phần của tài nguyên.&lt;br&gt;Delete với get Không có phần thân body&amp;nbsp;&lt;br&gt;&lt;/b&gt;" style="rounded=1;fillColor=#FF3333;strokeColor=none;strokeWidth=3;shadow=0;html=1;fontColor=#FFFFFF;" parent="1" vertex="1">
          <mxGeometry x="-470" y="883" width="457" height="123.5" as="geometry" />
        </mxCell>
        <mxCell id="1494" value="&lt;b style=&quot;border-color: var(--border-color);&quot;&gt;URL : Bản chất là URI&amp;nbsp;&lt;br style=&quot;border-color: var(--border-color);&quot;&gt;URN : định dạng&amp;nbsp; trên Internet và không thay dổi&lt;br style=&quot;border-color: var(--border-color);&quot;&gt;theo thời gian&amp;nbsp;&lt;/b&gt;" style="rounded=1;fillColor=#f08e81;strokeColor=none;strokeWidth=3;shadow=0;html=1;fontColor=#FFFFFF;" parent="1" vertex="1">
          <mxGeometry x="348.5" y="1100" width="351.5" height="121.5" as="geometry" />
        </mxCell>
        <mxCell id="1495" value="&lt;b&gt;Handel method : Method trong controller dùng để xử lý&amp;nbsp;&lt;br&gt;request thì gọi là handel method&amp;nbsp;&lt;br&gt;@ResponseBody&lt;br&gt;• String&lt;br&gt;• View&lt;br&gt;• @ModelAttribute&lt;br&gt;• ModelAndView&lt;br&gt;• void&lt;/b&gt;" style="rounded=1;fillColor=#f08e81;strokeColor=none;strokeWidth=3;shadow=0;html=1;fontColor=#FFFFFF;align=center;" parent="1" vertex="1">
          <mxGeometry x="-670" y="1330" width="310" height="170" as="geometry" />
        </mxCell>
        <mxCell id="1496" value="&lt;b&gt;1 request&amp;nbsp; gồm những phần nào :&amp;nbsp;&lt;br&gt;1.method&lt;br&gt;2.Param&amp;nbsp;&lt;br&gt;3.URL&lt;br&gt;4.Media type&amp;nbsp;&lt;br&gt;5.Heaader&lt;br&gt;&lt;/b&gt;" style="rounded=1;fillColor=#f08e81;strokeColor=none;strokeWidth=3;shadow=0;html=1;fontColor=#FFFFFF;" parent="1" vertex="1">
          <mxGeometry x="130" y="1460" width="220" height="140" as="geometry" />
        </mxCell>
        <mxCell id="1497" value="&lt;font style=&quot;font-size: 14px;&quot;&gt;&lt;b&gt;Phân biệt&amp;nbsp; @Controller và @RestController&amp;nbsp;&lt;br&gt;@Controller dùng cho ứng dụng&lt;/b&gt;&amp;nbsp;web truyền&lt;br&gt;thống&amp;nbsp;&lt;br&gt;+RestController đc sử dụng trong ứng dụng web&lt;br&gt;service&lt;br&gt;&lt;/font&gt;" style="rounded=1;fillColor=#f08e81;strokeColor=none;strokeWidth=3;shadow=0;html=1;fontColor=#FFFFFF;" parent="1" vertex="1">
          <mxGeometry x="-660" y="1160" width="290" height="149" as="geometry" />
        </mxCell>
        <mxCell id="1498" value="&lt;b&gt;Mapping các thuộc tính đến từ request :&amp;nbsp;&lt;br&gt;1. @RequestParam&amp;nbsp;&lt;br&gt;2.@PathVariable&amp;nbsp;&lt;br&gt;----------------&amp;gt;&amp;gt;&lt;br&gt;Phân biệt&amp;nbsp;&lt;br&gt;1.@RequestParram lấy dữ liệu theo dạng key-value&lt;br&gt;=&amp;gt; thường dùng cho chức năng tìm kiếm&amp;nbsp;&lt;br&gt;2.@PathVariable : Lấy dữ liệu theo dạng value =&amp;gt;&amp;nbsp;&lt;br&gt;thường dùng cho chức năng detail&amp;nbsp;&lt;br&gt;@PathVariable là annotation để lấy tham số là một thành &lt;br&gt;phần của đường dẫn&lt;br&gt;@RequestParam là annotation để lấy tham số là biến trong &lt;br&gt;query string.&amp;nbsp;&lt;br&gt;&lt;/b&gt;" style="rounded=1;fillColor=#f08e81;strokeColor=none;strokeWidth=3;shadow=0;html=1;fontColor=#FFFFFF;" parent="1" vertex="1">
          <mxGeometry x="-13" y="1654" width="360" height="240" as="geometry" />
        </mxCell>
        <mxCell id="1499" value="&lt;b&gt;Annotation @RequestMapping được sử dụng để ánh xạ các&lt;br&gt;request tới các action tương ứng của controller&amp;nbsp;&lt;br&gt;@Request Mapping gồm 1 số thuộc tính :&amp;nbsp;&lt;br&gt;1.URL&amp;nbsp;&lt;br&gt;2. HTTP method&amp;nbsp;&lt;br&gt;3.các tham số&amp;nbsp;&lt;br&gt;&lt;span style=&quot;white-space: pre;&quot;&gt; &lt;/span&gt;4.Các header&amp;nbsp;&lt;br&gt;5.Media Type&amp;nbsp;&lt;br&gt;@RequestMapping có thể áp dụng cho lớp hoặc cho&amp;nbsp;&lt;br&gt;phương thức&lt;/b&gt;" style="rounded=1;fillColor=#f08e81;strokeColor=none;strokeWidth=3;shadow=0;html=1;fontColor=#FFFFFF;" parent="1" vertex="1">
          <mxGeometry x="173.5" y="1224.75" width="350" height="210" as="geometry" />
        </mxCell>
        <mxCell id="1500" value="&lt;b&gt;Phan biệt Model , ModelAndView , Model Map&amp;nbsp;&lt;br&gt;1.Model : LÀ Interface trong khi đó ModelMap là một class&amp;nbsp;&lt;br&gt;2.Model là 1 Interface nó chứa đựng 4 phương thức addAtribute&lt;br&gt;và 1 phương thức mergeAttribute&amp;nbsp;&lt;br&gt;3. Model Map cài đặt lớp Map interface . Nên nó thêm các phương&amp;nbsp;&lt;br&gt;thức của Map&amp;nbsp;&lt;br&gt;4.ModelAndView là sự kết hợp của 2 mục đích&amp;nbsp; ModelAndView . Nó&lt;br&gt;cho phép controoler trả về&amp;nbsp; 1 giá trị bao gồm Model và view&amp;nbsp;&lt;br&gt;&lt;br&gt;&lt;/b&gt;" style="rounded=1;fillColor=#f08e81;strokeColor=none;strokeWidth=3;shadow=0;html=1;fontColor=#FFFFFF;" parent="1" vertex="1">
          <mxGeometry x="560" y="1260" width="380" height="158.5" as="geometry" />
        </mxCell>
        <mxCell id="1501" value="&lt;div style=&quot;&quot;&gt;&lt;div style=&quot;text-align: center;&quot;&gt;&lt;i style=&quot;background-color: initial;&quot;&gt;&lt;b style=&quot;background-color: initial;&quot;&gt;Các Biển thể của Request Mapping :&amp;nbsp;&lt;/b&gt;&lt;/i&gt;&lt;/div&gt;&lt;i&gt;&lt;div style=&quot;text-align: center;&quot;&gt;&lt;i style=&quot;background-color: initial;&quot;&gt;&lt;b style=&quot;background-color: initial;&quot;&gt;1 . @PutMapping : Cập nhập toàn bộ project&lt;/b&gt;&lt;/i&gt;&lt;/div&gt;&lt;b style=&quot;background-color: initial;&quot;&gt;&lt;div style=&quot;text-align: center;&quot;&gt;&lt;i style=&quot;background-color: initial; font-weight: normal;&quot;&gt;&lt;b style=&quot;background-color: initial;&quot;&gt;2. @PatchMapping : Cập nhập 1 phần hoặc toàn bộ&amp;nbsp;&lt;/b&gt;&lt;/i&gt;&lt;/div&gt;&lt;/b&gt;&lt;b style=&quot;background-color: initial;&quot;&gt;&lt;div style=&quot;text-align: center;&quot;&gt;&lt;i style=&quot;background-color: initial; font-weight: normal;&quot;&gt;&lt;b style=&quot;background-color: initial;&quot;&gt;project&amp;nbsp;&lt;/b&gt;&lt;/i&gt;&lt;/div&gt;&lt;/b&gt;&lt;b style=&quot;background-color: initial;&quot;&gt;&lt;div style=&quot;text-align: center;&quot;&gt;&lt;i style=&quot;background-color: initial; font-weight: normal;&quot;&gt;&lt;b style=&quot;background-color: initial;&quot;&gt;3.@deleteMapping : xóa&amp;nbsp;&lt;/b&gt;&lt;/i&gt;&lt;/div&gt;&lt;/b&gt;&lt;b style=&quot;background-color: initial;&quot;&gt;&lt;div style=&quot;text-align: center;&quot;&gt;&lt;i style=&quot;background-color: initial; font-weight: normal;&quot;&gt;&lt;b style=&quot;background-color: initial;&quot;&gt;4: @PostMapping Thêm ( trường hợp ko đùng path ,&lt;/b&gt;&lt;/i&gt;&lt;/div&gt;&lt;/b&gt;&lt;b style=&quot;background-color: initial;&quot;&gt;&lt;div style=&quot;text-align: center;&quot;&gt;&lt;i style=&quot;background-color: initial; font-weight: normal;&quot;&gt;&lt;b style=&quot;background-color: initial;&quot;&gt;put,delete ) thì có thể sửa và xóa&amp;nbsp;&lt;/b&gt;&lt;/i&gt;&lt;/div&gt;&lt;/b&gt;&lt;b style=&quot;background-color: initial;&quot;&gt;&lt;div style=&quot;text-align: center;&quot;&gt;&lt;i style=&quot;background-color: initial; font-weight: normal;&quot;&gt;&lt;b style=&quot;background-color: initial;&quot;&gt;5 . @GetMapping : lấy list, detail , search&amp;nbsp;&lt;/b&gt;&lt;/i&gt;&lt;/div&gt;&lt;/b&gt;&lt;/i&gt;&lt;/div&gt;&lt;div style=&quot;font-weight: bold;&quot;&gt;&lt;div style=&quot;text-align: center;&quot;&gt;&lt;i style=&quot;background-color: initial;&quot;&gt;&lt;b style=&quot;background-color: initial;&quot;&gt;=&amp;gt;&amp;gt; Sử dụng&lt;/b&gt;&lt;/i&gt;&lt;/div&gt;&lt;i&gt;&lt;div style=&quot;text-align: center;&quot;&gt;&lt;i style=&quot;background-color: initial;&quot;&gt;&lt;b style=&quot;background-color: initial;&quot;&gt;@PutMapping , PatchMapping ,@DeleteMapping ở&amp;nbsp;&lt;/b&gt;&lt;/i&gt;&lt;/div&gt;&lt;b style=&quot;background-color: initial;&quot;&gt;&lt;div style=&quot;text-align: center;&quot;&gt;&lt;i style=&quot;background-color: initial;&quot;&gt;&lt;b style=&quot;background-color: initial;&quot;&gt;WebService&lt;/b&gt;&lt;/i&gt;&lt;/div&gt;&lt;/b&gt;&lt;/i&gt;&lt;/div&gt;&lt;div style=&quot;text-align: center;&quot;&gt;&lt;span style=&quot;font-size: 12px;&quot;&gt;&lt;b&gt;&lt;br&gt;&lt;/b&gt;&lt;/span&gt;&lt;/div&gt;" style="rounded=1;fillColor=#f08e81;strokeColor=none;strokeWidth=3;shadow=0;html=1;fontColor=#FFFFFF;align=left;" parent="1" vertex="1">
          <mxGeometry x="-800" y="1540" width="370" height="260" as="geometry" />
        </mxCell>
        <mxCell id="1502" value="" style="edgeStyle=none;endArrow=none;strokeWidth=3;strokeColor=#F08E81;html=1;" parent="1" source="1356" target="1501" edge="1">
          <mxGeometry x="188.5" y="51.5" width="100" height="100" as="geometry">
            <mxPoint x="188.5" y="151.5" as="sourcePoint" />
            <mxPoint x="288.5" y="51.5" as="targetPoint" />
          </mxGeometry>
        </mxCell>
        <mxCell id="1503" value="" style="edgeStyle=none;endArrow=none;strokeWidth=3;strokeColor=#F08E81;html=1;" parent="1" source="1356" target="1490" edge="1">
          <mxGeometry x="188.5" y="51.5" width="100" height="100" as="geometry">
            <mxPoint x="188.5" y="151.5" as="sourcePoint" />
            <mxPoint x="288.5" y="51.5" as="targetPoint" />
          </mxGeometry>
        </mxCell>
        <mxCell id="1504" value="" style="edgeStyle=none;endArrow=none;strokeWidth=3;strokeColor=#F08E81;html=1;" parent="1" source="1356" target="1491" edge="1">
          <mxGeometry x="188.5" y="51.5" width="100" height="100" as="geometry">
            <mxPoint x="188.5" y="151.5" as="sourcePoint" />
            <mxPoint x="288.5" y="51.5" as="targetPoint" />
          </mxGeometry>
        </mxCell>
        <mxCell id="1507" value="" style="edgeStyle=none;endArrow=none;strokeWidth=3;strokeColor=#F08E81;html=1;" parent="1" source="1356" target="1494" edge="1">
          <mxGeometry x="188.5" y="51.5" width="100" height="100" as="geometry">
            <mxPoint x="188.5" y="151.5" as="sourcePoint" />
            <mxPoint x="288.5" y="51.5" as="targetPoint" />
          </mxGeometry>
        </mxCell>
        <mxCell id="1508" value="" style="edgeStyle=none;endArrow=none;strokeWidth=3;strokeColor=#F08E81;html=1;" parent="1" source="1356" target="1495" edge="1">
          <mxGeometry x="188.5" y="51.5" width="100" height="100" as="geometry">
            <mxPoint x="188.5" y="151.5" as="sourcePoint" />
            <mxPoint x="288.5" y="51.5" as="targetPoint" />
          </mxGeometry>
        </mxCell>
        <mxCell id="1509" value="" style="edgeStyle=none;endArrow=none;strokeWidth=3;strokeColor=#F08E81;html=1;" parent="1" source="1356" target="1496" edge="1">
          <mxGeometry x="188.5" y="51.5" width="100" height="100" as="geometry">
            <mxPoint x="188.5" y="151.5" as="sourcePoint" />
            <mxPoint x="288.5" y="51.5" as="targetPoint" />
          </mxGeometry>
        </mxCell>
        <mxCell id="1510" value="" style="edgeStyle=none;endArrow=none;strokeWidth=3;strokeColor=#F08E81;html=1;entryX=1;entryY=0.5;entryDx=0;entryDy=0;" parent="1" source="1356" target="JrTmAF7L5K-6k5XvirXO-1562" edge="1">
          <mxGeometry x="188.5" y="51.5" width="100" height="100" as="geometry">
            <mxPoint x="188.5" y="151.5" as="sourcePoint" />
            <mxPoint x="288.5" y="51.5" as="targetPoint" />
            <Array as="points">
              <mxPoint x="-260" y="1150" />
            </Array>
          </mxGeometry>
        </mxCell>
        <mxCell id="1511" value="" style="edgeStyle=none;endArrow=none;strokeWidth=3;strokeColor=#F08E81;html=1;" parent="1" source="1356" target="1498" edge="1">
          <mxGeometry x="188.5" y="51.5" width="100" height="100" as="geometry">
            <mxPoint x="188.5" y="151.5" as="sourcePoint" />
            <mxPoint x="288.5" y="51.5" as="targetPoint" />
            <Array as="points" />
          </mxGeometry>
        </mxCell>
        <mxCell id="1514" style="edgeStyle=orthogonalEdgeStyle;rounded=0;html=1;exitX=0.75;exitY=0;entryX=0.75;entryY=0;startArrow=none;startFill=0;endArrow=block;endFill=1;jettySize=auto;orthogonalLoop=1;strokeColor=#12aab5;strokeWidth=6;fontSize=20;fontColor=#2F5B7C;" parent="1" edge="1">
          <mxGeometry relative="1" as="geometry">
            <mxPoint x="1611" y="371.5" as="sourcePoint" />
            <mxPoint x="1611" y="371.5" as="targetPoint" />
          </mxGeometry>
        </mxCell>
        <mxCell id="1515" value="Module 4&amp;nbsp;" style="ellipse;whiteSpace=wrap;html=1;shadow=0;fontFamily=Helvetica;fontSize=30;fontColor=#2F5B7C;align=center;strokeColor=#2F5B7C;strokeWidth=6;fillColor=#FFFFFF;fontStyle=1;gradientColor=none;" parent="1" vertex="1">
          <mxGeometry x="961" y="676.5" width="270" height="270" as="geometry" />
        </mxCell>
        <mxCell id="1516" value="Bài 3&amp;nbsp;" style="ellipse;whiteSpace=wrap;html=1;shadow=0;fontFamily=Helvetica;fontSize=20;fontColor=#FFFFFF;align=center;strokeWidth=3;fillColor=#736ca8;strokeColor=none;rotation=-10;" parent="1" vertex="1">
          <mxGeometry x="-40" y="600" width="120" height="120" as="geometry" />
        </mxCell>
        <mxCell id="1518" value="&lt;b&gt;1.Text input&amp;nbsp;&lt;br&gt;2.DATA BINDER ( Hoạt động dựa trên đối tượng )&lt;br&gt;- validator : dùng để validate&amp;nbsp;&lt;br&gt;-PropertyEditor : mapping dữ liệu&amp;nbsp; đầu vào (bộ dịnh dạng dữ liệu)&lt;br&gt;- Formatter và ConversionService&amp;nbsp; (Bộ lọc dữ liệu) : Chuyển đổi string thành KDL của thuộc &lt;br&gt;tính&amp;nbsp;&lt;br&gt;3. Cho ra kết quả là Bean và Binđing Result&amp;nbsp;&lt;br&gt;Bean là đối tượng còn BeandingResult là có lỗi khi trong qua trình làm có lỗi thằng Binding&amp;nbsp;&lt;br&gt;Result sẽ hứng&amp;nbsp;&lt;br&gt;Vd : chuyenr đổi KD; . validate ko dúng&amp;nbsp;&lt;/b&gt;" style="rounded=1;fillColor=#a29dc5;strokeColor=none;strokeWidth=3;shadow=0;html=1;fontColor=#FFFFFF;" parent="1" vertex="1">
          <mxGeometry x="-630" y="336.5" width="610" height="200" as="geometry" />
        </mxCell>
        <mxCell id="1523" value="Tại sao phải sử dụng data Binding ?&amp;nbsp;&lt;br&gt;- Giúp cho việc tương tác với dữ liệu trở nên dễ dang hơn&amp;nbsp;&lt;br&gt;" style="rounded=1;fillColor=#f8cecc;strokeColor=#b85450;strokeWidth=3;shadow=0;html=1;" parent="1" vertex="1">
          <mxGeometry x="12" y="446.5" width="310" height="110" as="geometry" />
        </mxCell>
        <mxCell id="1524" value="&lt;b&gt;THuộc tính Consumes trong các request&lt;br&gt;Mapping là gì :&amp;nbsp;&lt;br&gt;Được dùng để định dạng dữ liệu khi client&lt;br&gt;request lên server&amp;nbsp;&lt;/b&gt;" style="rounded=1;fillColor=#a29dc5;strokeColor=none;strokeWidth=3;shadow=0;html=1;fontColor=#FFFFFF;" parent="1" vertex="1">
          <mxGeometry x="72" y="720" width="250" height="97" as="geometry" />
        </mxCell>
        <mxCell id="1525" value="&lt;b&gt;thuộc tính model Attribute :&lt;br&gt;Liên kết dữ liệu của form với model&amp;nbsp;&lt;/b&gt;" style="rounded=1;fillColor=#a29dc5;strokeColor=none;strokeWidth=3;shadow=0;html=1;fontColor=#FFFFFF;" parent="1" vertex="1">
          <mxGeometry x="-310" y="720" width="200" height="80" as="geometry" />
        </mxCell>
        <mxCell id="1529" value="&lt;b&gt;DAta binding là 1 cơ chế giúp liên kết dữ liệu đầu vào đầu ra với model&amp;nbsp;&lt;br&gt;Dễ tương tác với dữ liệu hơn .Vì các dữ liệu của form sẽ tự động chuyển đổi thành&amp;nbsp;&lt;br&gt;thuộc tính đồng thời còn giúp chueyenr đổi kiểu dữ liệu và validate&amp;nbsp;&lt;/b&gt;" style="rounded=1;fillColor=#a29dc5;strokeColor=none;strokeWidth=3;shadow=0;html=1;fontColor=#FFFFFF;" parent="1" vertex="1">
          <mxGeometry x="-630" y="546.5" width="450" height="130" as="geometry" />
        </mxCell>
        <mxCell id="1530" value="" style="edgeStyle=none;endArrow=none;strokeWidth=3;strokeColor=#A29DC5;html=1;" parent="1" source="1516" target="1518" edge="1">
          <mxGeometry x="-1498" y="-303.5" width="100" height="100" as="geometry">
            <mxPoint x="-1498" y="-203.5" as="sourcePoint" />
            <mxPoint x="-1398" y="-303.5" as="targetPoint" />
          </mxGeometry>
        </mxCell>
        <mxCell id="1535" value="" style="edgeStyle=none;endArrow=none;strokeWidth=3;strokeColor=#A29DC5;html=1;" parent="1" source="1516" target="1523" edge="1">
          <mxGeometry x="-1498" y="-303.5" width="100" height="100" as="geometry">
            <mxPoint x="-1498" y="-203.5" as="sourcePoint" />
            <mxPoint x="-1398" y="-303.5" as="targetPoint" />
          </mxGeometry>
        </mxCell>
        <mxCell id="1536" value="" style="edgeStyle=none;endArrow=none;strokeWidth=3;strokeColor=#A29DC5;html=1;" parent="1" source="1516" target="1524" edge="1">
          <mxGeometry x="-1498" y="-303.5" width="100" height="100" as="geometry">
            <mxPoint x="-1498" y="-203.5" as="sourcePoint" />
            <mxPoint x="-1398" y="-303.5" as="targetPoint" />
          </mxGeometry>
        </mxCell>
        <mxCell id="1537" value="" style="edgeStyle=none;endArrow=none;strokeWidth=3;strokeColor=#A29DC5;html=1;" parent="1" source="1516" target="1525" edge="1">
          <mxGeometry x="-1498" y="-303.5" width="100" height="100" as="geometry">
            <mxPoint x="-1498" y="-203.5" as="sourcePoint" />
            <mxPoint x="-1398" y="-303.5" as="targetPoint" />
          </mxGeometry>
        </mxCell>
        <mxCell id="1540" value="" style="edgeStyle=none;endArrow=none;strokeWidth=3;strokeColor=#A29DC5;html=1;" parent="1" source="1516" target="1529" edge="1">
          <mxGeometry x="-1498" y="-303.5" width="100" height="100" as="geometry">
            <mxPoint x="-1498" y="-203.5" as="sourcePoint" />
            <mxPoint x="-1398" y="-303.5" as="targetPoint" />
          </mxGeometry>
        </mxCell>
        <mxCell id="1542" style="edgeStyle=none;rounded=0;html=1;exitX=0.5;exitY=1;endArrow=none;endFill=0;jettySize=auto;orthogonalLoop=1;strokeColor=#736CA8;strokeWidth=2;fillColor=#64bbe2;fontSize=20;fontColor=#23445D;" parent="1" source="1529" target="1529" edge="1">
          <mxGeometry relative="1" as="geometry" />
        </mxCell>
        <mxCell id="Cmk2xYs6YTEzGEQr2qk5-1547" value="Sự khác nhau của framework và library&amp;nbsp;&lt;br style=&quot;border-color: var(--border-color);&quot;&gt;- Library : lập trình viên&amp;nbsp; sẽ nắm quyền điều khiển&amp;nbsp;&lt;br&gt;(Code của mình sẽ gọi code của thư viên)&lt;br&gt;- Framework : Sẽ nắm quyền điều khiển (Code của Framework sẽ gọi code của mình )&amp;nbsp;&lt;br&gt;- Điểm khác biệt lớn nhất giữa Framework và library là cơ chế IOC" style="text;html=1;strokeColor=none;fillColor=none;align=center;verticalAlign=middle;whiteSpace=wrap;rounded=0;" parent="1" vertex="1">
          <mxGeometry x="923.5" y="1700" width="230" height="120" as="geometry" />
        </mxCell>
        <mxCell id="Cmk2xYs6YTEzGEQr2qk5-1550" value="&lt;b&gt;Luồng duy chuyển của 1 request :&amp;nbsp;&lt;br&gt;- Khi có 1 request đi vào Spring MVC thì FrontController sẽ đón nhận và sử dụng cơ chế URl handle Mapping để ánh xạ đến controller tương ứng&amp;nbsp;&lt;br&gt;- Controller sẽ xử lý request,nếu cần sẽ dựa vào Model xử lý nghiệp vụ và thao tác dữ liệu DB,kết quả sẽ được gửi ngược lại cho Controller&amp;nbsp;&lt;br&gt;- Controller sẽ gửi về cho FrontController 1 cái modelAndView&lt;br&gt;-FrontController sẽ render dữ liệu lên view theo cơ chế ViewResolver&amp;nbsp;&lt;br&gt;-Cuối cùng kết quả sẽ được gửi lại FrontController và phản hồi về cho người dùng&amp;nbsp;&lt;/b&gt;" style="text;html=1;strokeColor=none;fillColor=none;align=center;verticalAlign=middle;whiteSpace=wrap;rounded=0;" parent="1" vertex="1">
          <mxGeometry x="1210" y="1670" width="220" height="200" as="geometry" />
        </mxCell>
        <mxCell id="JrTmAF7L5K-6k5XvirXO-1545" value="Component Scan hoạt động : tìm hết&amp;nbsp;&lt;br&gt;các class đánh dấu là bean trong chương trình và tạo bean&amp;nbsp;" style="rounded=1;whiteSpace=wrap;html=1;fillColor=#fff2cc;strokeColor=#d6b656;" parent="1" vertex="1">
          <mxGeometry x="1620" y="1850" width="210" height="98.76" as="geometry" />
        </mxCell>
        <mxCell id="JrTmAF7L5K-6k5XvirXO-1547" value="&lt;b&gt;Tại sao gọi Bean là sương sống của bean framwork :&lt;br&gt;1. Sử dụng Bean như một thành phần chính để quản lý&amp;nbsp;&lt;br&gt;và cấu hình các ứng dụng của nó&amp;nbsp;&lt;br&gt;2. trong Bean Framework ,Bean là các đối tượng Java được quản lý bởi&amp;nbsp; Bean Context&amp;nbsp; &amp;nbsp;và cung cấp các dịnh vụ cho Bean&amp;nbsp; .&amp;nbsp;&lt;br&gt;3. Bean framework còn cho phép khai báo các Bean trong file cấu hình&amp;nbsp; XML&amp;nbsp; hoặc các tệp khác dễ dàng đọc và&amp;nbsp; hiểu&amp;nbsp;&lt;br&gt;=&amp;gt;&amp;gt; Vậy bean coi là sương sống của bean framwork bởi vì nó là một thành phần quan trọng của kiến trúc và nó thể quản lý&amp;nbsp; và cấu hình các thành phần khác&amp;nbsp;&lt;br&gt;&lt;/b&gt;" style="rounded=0;whiteSpace=wrap;html=1;fillColor=#f8cecc;strokeColor=#b85450;" parent="1" vertex="1">
          <mxGeometry x="1283.5" y="1930" width="326.5" height="180" as="geometry" />
        </mxCell>
        <mxCell id="JrTmAF7L5K-6k5XvirXO-1548" value="@Controller để :&amp;nbsp;&lt;br&gt;Để dánh dấu cho framework là controller và spring IOC container để tạo bean&amp;nbsp;" style="rounded=0;whiteSpace=wrap;html=1;fillColor=#ffe6cc;strokeColor=#d79b00;" parent="1" vertex="1">
          <mxGeometry x="830" y="1980" width="190" height="180" as="geometry" />
        </mxCell>
        <mxCell id="JrTmAF7L5K-6k5XvirXO-1559" value="" style="edgeStyle=none;endArrow=none;strokeWidth=3;strokeColor=#F08E81;html=1;" parent="1" target="1500" edge="1">
          <mxGeometry x="188.5" y="51.5" width="100" height="100" as="geometry">
            <mxPoint x="1160" y="1509.6991325827205" as="sourcePoint" />
            <mxPoint x="610" y="1295" as="targetPoint" />
            <Array as="points" />
          </mxGeometry>
        </mxCell>
        <mxCell id="JrTmAF7L5K-6k5XvirXO-1562" value="Có thể ánh xạ các request bằng mẫu đại diện&amp;nbsp;&lt;br&gt;? : trùng khớp 1 kí tự&amp;nbsp;&lt;br&gt;&lt;span style=&quot;white-space: pre;&quot;&gt; &lt;/span&gt;*:trùng khớp 0 hoặc nhiều ký tự&amp;nbsp;&lt;br&gt;** trùng khớp 0 hoặc nhiều phần của đường dẫn" style="whiteSpace=wrap;html=1;fontSize=20;fillColor=#E85642;strokeColor=none;fontColor=#FFFFFF;shadow=0;strokeWidth=3;" parent="1" vertex="1">
          <mxGeometry x="-910" y="970" width="425" height="166.5" as="geometry" />
        </mxCell>
        <mxCell id="JrTmAF7L5K-6k5XvirXO-1564" value="@RequestParam để truy cập&amp;nbsp;&lt;br&gt;một tham số của URI với một&lt;br&gt;tham số của handler method&lt;br&gt;&lt;span style=&quot;&quot;&gt; &lt;/span&gt;@ModelAttribute : để truy cập đến thuộc tính của 1 model&amp;nbsp;&lt;br&gt;Các thuộc tính của model được liên kết với các trường dữ liệu có cùng tên&amp;nbsp;&lt;br&gt;&lt;br&gt;MultipartFile để truy cập đến file&amp;nbsp;&lt;br&gt;được upload lên&amp;nbsp;" style="rounded=1;whiteSpace=wrap;html=1;fontSize=20;fillColor=#E85642;strokeColor=none;fontColor=#FFFFFF;shadow=0;strokeWidth=3;" parent="1" vertex="1">
          <mxGeometry x="-350" y="1460" width="310" height="390" as="geometry" />
        </mxCell>
        <mxCell id="JrTmAF7L5K-6k5XvirXO-1569" style="edgeStyle=orthogonalEdgeStyle;rounded=0;orthogonalLoop=1;jettySize=auto;html=1;" parent="1" edge="1">
          <mxGeometry relative="1" as="geometry">
            <mxPoint x="570" y="301.5" as="sourcePoint" />
            <mxPoint x="570" y="321.5" as="targetPoint" />
          </mxGeometry>
        </mxCell>
        <mxCell id="W5e1PEXYwIjicvcc-PXp-1545" value="&lt;b&gt;Tại sao phải tiêm sự phụ thuộc để giảm sự&amp;nbsp; phụ thuộc :&amp;nbsp;&lt;br&gt;Thay vì mình phải khởi tạo new 100 cái đối tượng mới thì mình chỉ cần&amp;nbsp;&lt;br&gt;@Autowise thì spring boot sẽ tiêm cái đối tượng đó vào cho mình . Và khi mình dùng thì chỉ cần @Autowise là được&amp;nbsp;&amp;nbsp;&lt;/b&gt;" style="whiteSpace=wrap;html=1;fontSize=20;fillColor=#FF3333;strokeColor=#b85450;shadow=0;strokeWidth=3;" parent="1" vertex="1">
          <mxGeometry x="643.5" y="2190" width="706.5" height="230" as="geometry" />
        </mxCell>
        <mxCell id="9B7yc1801kk1VfymF8rt-1546" value="Sự khác nhau của Spring Data Jpa và JPA&amp;nbsp;&lt;br&gt;1.Tích hợp với các tính năng Spring khác: Với Spring Data JPA, bạn có thể kết hợp với các tính năng khác của Spring như Spring MVC, Spring Security&amp;nbsp;&lt;br&gt;2.Tự động tạo truy vấn&amp;nbsp;&lt;br&gt;3.Repository: Spring Data JPA cung cấp một cách tiếp cận dễ dàng hơn để tạo repository để tương tác với cơ sở dữ liệu&amp;nbsp;&lt;br&gt;4.tiện ích&amp;nbsp;" style="rounded=1;whiteSpace=wrap;html=1;fontSize=20;fillColor=#E85642;strokeColor=none;fontColor=#FFFFFF;shadow=0;strokeWidth=3;" vertex="1" parent="1">
          <mxGeometry x="1863" y="-50" width="467" height="280" as="geometry" />
        </mxCell>
      </root>
    </mxGraphModel>
  </diagram>
</mxfile>
